<?xml version="1.0" encoding="UTF-8"?>
<svg version="1.1" viewBox="0 0 108 108" xmlns="http://www.w3.org/2000/svg">
 <rect width="108" height="108" fill="#fd5"/>
 <g transform="matrix(.43301 .25 -.25 .43301 41.79 4.1477)">
  <path d="m39-73.863-6.2e-5 296 64-2e-5 8e-5 -296z" fill="#999"/>
  <path d="m67 122.14h8l-1.51e-4 20h-8z" fill="#fff"/>
  <path d="m67 158.14h8l-1.51e-4 20h-8z" fill="#fff"/>
  <path d="m67 194.14h8l-1.51e-4 20h-8z" fill="#fff"/>
  <path d="m67 86.137 8 2e-6 2.46e-4 20-8-1e-5z" fill="#fff"/>
  <path d="m67 50.137 8 2e-6 2.46e-4 20-8-2e-6z" fill="#fff"/>
  <path d="m67 14.137 8 1e-6 2.46e-4 20-8-2e-6z" fill="#fff"/>
  <path d="m67-21.863 8 2e-6 2.46e-4 20-8-2e-6z" fill="#fff"/>
  <path d="m67-57.863 8 2e-6 2.46e-4 20-8-2e-6z" fill="#fff"/>
  <rect x="31" y="-73.863" width="8" height="296" fill="#fff"/>
  <rect x="103" y="-73.863" width="8" height="296" fill="#fff"/>
 </g>
</svg>
