<?xml version="1.0" encoding="UTF-8"?>
<svg version="1.1" viewBox="0 0 108 108" xml:space="preserve" xmlns="http://www.w3.org/2000/svg"><path d="m36.854 50c-1.0262 0-1.8516 0.92557-1.8516 2.0762v9.8477c0 1.1506 0.82531 2.0762 1.8516 2.0762h43.295c1.0261 0 1.8535-0.92557 1.8535-2.0762v-9.8477c0-1.1506-0.82727-2.0762-1.8535-2.0762z"/><g transform="matrix(.43301 .25 -.25 .43301 41.79 4.1477)"><path d="m31.001-73.864 9.15e-4 296 7.9979 0.00119-9.15e-4 -296-7.9979-0.001189zm35.999 16-4.3e-5 20 8.0013-7.64e-4 4.4e-5 -20-8.0013 7.64e-4zm36-15.999 9.2e-4 296 8.0013-7.7e-4 -9.2e-4 -296-8.0013 7.63e-4zm-35.998 52.001-4.4e-5 20 8.0013-7.638e-4 4.4e-5 -20-8.0013 7.64e-4zm-4.69e-4 35.999-4.4e-5 20 8.0013-7.64e-4 4.4e-5 -20-8.0013 7.64e-4zm-4.7e-4 35.999-4.3e-5 20 8.0013-7.64e-4 4.4e-5 -20-8.0013 7.64e-4zm-4.69e-4 35.999-4.4e-5 20 8.0013-7.6e-4 4.4e-5 -20-8.0013 7.64e-4zm0.001484 36.003-4.4e-5 20 7.9979 0.00119 4.4e-5 -20-7.9979-0.00119zm-4.7e-4 35.999-4.3e-5 20 7.9979 0.00119 4.3e-5 -20-7.9979-0.00119zm0.001484 36.003-4.4e-5 20 7.9979 0.00119 4.4e-5 -20-7.9979-0.00119z"/></g></svg>
