<?xml version="1.0" encoding="UTF-8"?>
<svg version="1.1" viewBox="0 0 108 108" xmlns="http://www.w3.org/2000/svg">
 <defs>
  <linearGradient id="linearGradient9319" x1="-256" x2="-223" y1="380" y2="417" gradientTransform="translate(14 -6)" gradientUnits="userSpaceOnUse">
   <stop stop-opacity=".26667" offset="0"/>
   <stop stop-color="#130907" stop-opacity="0" offset="1"/>
  </linearGradient>
 </defs>
 <g transform="translate(276 -308)">
  <path d="m-240.56 371.27 40.558 40.726 45.288-13.52-39.981-40.025z" fill="url(#linearGradient9319)"/>
  <g transform="matrix(.95875 0 0 1 -91.23 -24)">
   <path d="m-154.28 382h45.158c1.0704 0 1.932 0.9263 1.932 2.0769v9.8463c0 1.1506-0.8617 2.0769-1.932 2.0769h-45.158c-1.0704 0-1.932-0.92631-1.932-2.0769v-9.8463c0-1.1506 0.86169-2.0769 1.932-2.0769z" fill="#cc826b"/>
   <g transform="matrix(.66669 0 0 .75 -45.812 95.5)" fill="#ac573d">
    <path d="m-140.57 382h4.6934v13.333h-4.6934z"/>
    <path d="m-121.8 382h4.6934v13.333h-4.6934z"/>
    <path d="m-149.96 382h4.6934v5.3333h-4.6934z"/>
    <path d="m-131.18 382h4.6934v5.3333h-4.6934z"/>
    <path d="m-112.41 382h4.6934v5.3333h-4.6934z"/>
    <path d="m-159.34 382h4.6934v13.333h-4.6934z"/>
    <path d="m-103.02 382h4.6934v13.333h-4.6934z"/>
   </g>
  </g>
 </g>
</svg>
