<?xml version="1.0" encoding="UTF-8" standalone="no"?>
<svg version="1.1" viewBox="0 0 108 108" xmlns="http://www.w3.org/2000/svg" xmlns:svg="http://www.w3.org/2000/svg">
<defs>
<linearGradient id="grad" x1="-256" x2="-223" y1="380" y2="417" gradientTransform="translate(290,-314)" gradientUnits="userSpaceOnUse">
  <stop stop-opacity=".26667" offset="0" />
  <stop stop-color="#130907" stop-opacity="0" offset="1"/>
</linearGradient>
</defs>
<path 
  d="M 35.44,63.27 76,104 121.286,90.476 81.305,50.451Z"
  fill="url(#grad)" />
<path
  d="m36.85405,50h43.29523 c1.02625,0 1.85231,0.9263 1.85231,2.0769 v9.8463 c0,1.1506 -0.82616,2.0769 -1.85231,2.0769 H 36.85405 c -1.02625,0 -1.8523,-0.92631 -1.8523,-2.0769 v -9.8463 c 0,-1.1506 0.82614,-2.0769 1.8523,-2.0769 z"
  fill="#cc826b" />
<path
  d="m 39,50v10h3V50Zm6,0v4h3V50Zm6,0v10h3V50Z m6,0v4h3V50Zm6,0v10h3V50Z m6,0v4h3V50Z m6,0v10h3V50Z"
  fill="#ac573d" />
</svg>
