<?xml version="1.0" encoding="UTF-8"?>
<svg version="1.1" viewBox="0 0 108 108" xml:space="preserve" xmlns="http://www.w3.org/2000/svg"><path d="m36.854 50c-1.0262 0-1.8516 0.92554-1.8516 2.0762v9.8477c0 1.1506 0.82527 2.0762 1.8516 2.0762h43.295c1.0261 0 1.8535-0.92554 1.8535-2.0762v-9.8477c0-1.1506-0.82729-2.0762-1.8535-2.0762zm2.1484 1.7436h3v10h-3zm6 0h3v4h-3zm6 0h3v10h-3zm6 0h3v4h-3zm6 0h3v10h-3zm6 0h3v4h-3zm6 0h3v10h-3z"/><g transform="matrix(.43301 .25 -.25 .43301 41.79 4.1477)"><path d="m31.001-73.864 9.15e-4 296 7.9979 1e-3 -9.15e-4 -296-7.9979-0.0012zm35.999 16-4.3e-5 20 8.0013-7.64e-4 4.4e-5 -20zm44.002 99.698-3.6e-4 -115.7-8.0013 7.63e-4v7e-6l3.7e-4 120.29m1e-4 32.373 4.5e-4 143.34 8.0013-7.7e-4 -4.6e-4 -148m-44-95.998-4.4e-5 20 8.0013-7.638e-4 4.4e-5 -20zm-4.69e-4 35.999-4.4e-5 20 8.0013-7.64e-4 4.4e-5 -20zm-4.7e-4 35.999-0.3535 17.277 8.1495-4.7052 0.20528-12.572zm-5.13e-4 55.999 8.0013-7.6e-4 0.43188-11.462-7.9138 4.5691zm0.0015 16.003-4.4e-5 20 7.9979 1e-3 4.4e-5 -20zm-4.7e-4 35.999-4.3e-5 20 7.9979 1e-3 4.3e-5 -20zm0.0015 36.003-4.4e-5 20 7.9979 1e-3 4.4e-5 -20z"/></g></svg>
